<svg height="512pt" viewBox="-30 0 512 512.01826" width="512pt" xmlns="http://www.w3.org/2000/svg"><path d="m328.574219 255.996094c0 56.550781-45.84375 102.394531-102.398438 102.394531-56.550781 0-102.394531-45.84375-102.394531-102.394531 0-56.550782 45.84375-102.394532 102.394531-102.394532 56.554688 0 102.398438 45.84375 102.398438 102.394532zm0 0" fill="#f3af3e"/><path d="m160.0625 281.59375c-3.882812 0-7.273438-2.628906-8.25-6.390625-10.011719-38.832031 11.511719-78.835937 49.429688-91.882813 4.425781-1.621093 9.328124.652344 10.949218 5.078126 1.621094 4.425781-.652344 9.324218-5.078125 10.949218-.105469.039063-.214843.074219-.324219.109375-29.5 10.140625-46.246093 41.257813-38.457031 71.464844 1.183594 4.5625-1.554687 9.21875-6.117187 10.402344-.703125.179687-1.425782.273437-2.152344.269531zm0 0" fill="#da922a"/><path d="m206.226562 329.824219c-.84375 0-1.683593-.125-2.492187-.375-12.59375-3.847657-23.988281-10.871094-33.082031-20.394531-3.253906-3.410157-3.125-8.8125.28125-12.066407 3.410156-3.253906 8.8125-3.128906 12.066406.28125 7.058594 7.417969 15.910156 12.894531 25.703125 15.898438 4.507813 1.367187 7.054687 6.128906 5.691406 10.640625-1.09375 3.597656-4.40625 6.058594-8.167969 6.058594zm0 0" fill="#da922a"/><path d="m332.871094 184.804688 110.945312-63.816407 8.511719 14.792969-110.945313 63.816406zm0 0" fill="#f3af3e"/><path d="m217.867188 127.992188.253906-127.992188 17.066406.0351562-.253906 127.9921878zm0 0" fill="#f3af3e"/><path d="m.4375 134.996094 8.558594-14.765625 110.738281 64.191406-8.558594 14.765625zm0 0" fill="#f3af3e"/><path d="m.0078125 376.203125 110.9453125-63.816406 8.511719 14.792969-110.945313 63.816406zm0 0" fill="#f3af3e"/><path d="m217.191406 511.984375.253906-127.992187 17.066407.03125-.253907 127.996093zm0 0" fill="#f7ba61"/><path d="m332.640625 327.542969 8.558594-14.765625 110.742187 64.1875-8.558594 14.765625zm0 0" fill="#f3af3e"/><g fill="#fbd699"><path d="m282.761719 140.867188 38.390625-66.511719 14.78125 8.53125-38.390625 66.511719zm0 0"/><path d="m116.363281 82.910156 14.773438-8.53125 38.410156 66.5-14.769531 8.53125zm0 0"/><path d="m21.386719 247.488281h76.796875v17.066407h-76.796875zm0 0"/><path d="m116.429688 429.085938 38.390624-66.511719 14.78125 8.53125-38.390624 66.511719zm0 0"/><path d="m282.808594 371.074219 14.769531-8.53125 38.414063 66.496093-14.769532 8.535157zm0 0"/><path d="m354.171875 247.4375h76.796875v17.066406h-76.796875zm0 0"/></g></svg>