<svg height="511pt" viewBox="0 0 511 511.99995" width="511pt" xmlns="http://www.w3.org/2000/svg"><path d="m439.324219 128.027344h-18.515625c-2.429688-42.757813-39.066406-75.449219-81.820313-73.015625-12.035156.683593-23.742187 4.164062-34.191406 10.160156-19.53125-51.960937-77.488281-78.25-129.449219-58.71875-39.210937 14.742187-65.171875 52.253906-65.144531 94.144531v27.429688c-40.394531 0-73.140625 32.742187-73.140625 73.136718v9.140626c0 40.394531 32.746094 73.140624 73.140625 73.140624h329.121094c40.390625 0 73.136719-32.746093 73.136719-73.140624v-9.140626c0-40.394531-32.746094-73.136718-73.136719-73.136718zm0 0" fill="#b8eaee"/><g fill="#c0f5f9"><path d="m137.628906 365.722656c-5.050781 0-9.140625-4.097656-9.136718-9.144531 0-1.417969.332031-2.816406.964843-4.082031l9.140625-18.285156c2.257813-4.519532 7.75-6.351563 12.269532-4.097657 4.519531 2.257813 6.351562 7.75 4.09375 12.269531l-9.140626 18.285157c-1.550781 3.101562-4.722656 5.0625-8.191406 5.054687zm0 0"/><path d="m64.492188 365.722656c-5.050782 0-9.140626-4.097656-9.140626-9.144531.003907-1.417969.332032-2.816406.964844-4.082031l9.144532-18.285156c2.257812-4.519532 7.75-6.351563 12.269531-4.097657 4.515625 2.257813 6.351562 7.75 4.09375 12.269531l-9.140625 18.285157c-1.550782 3.101562-4.722656 5.0625-8.191406 5.054687zm0 0"/><path d="m110.203125 420.578125c-5.050781-.003906-9.140625-4.097656-9.136719-9.148437 0-1.417969.328125-2.8125.960938-4.082032l9.144531-18.285156c2.257813-4.515625 7.75-6.351562 12.269531-4.09375 4.519532 2.257812 6.351563 7.75 4.09375 12.269531l-9.140625 18.285157c-1.550781 3.101562-4.722656 5.058593-8.191406 5.054687zm0 0"/><path d="m37.0625 420.578125c-5.046875-.003906-9.136719-4.097656-9.136719-9.148437 0-1.417969.332031-2.8125.964844-4.082032l9.140625-18.285156c2.257812-4.515625 7.75-6.351562 12.269531-4.09375s6.355469 7.75 4.097657 12.269531l-9.144532 18.285157c-1.546875 3.101562-4.722656 5.058593-8.191406 5.054687zm0 0"/><path d="m82.777344 475.429688c-5.050782 0-9.140625-4.097657-9.140625-9.144532.003906-1.417968.332031-2.816406.964843-4.082031l9.144532-18.285156c2.253906-4.519531 7.75-6.351563 12.265625-4.097657 4.519531 2.257813 6.355469 7.75 4.097656 12.269532l-9.140625 18.285156c-1.550781 3.101562-4.726562 5.0625-8.191406 5.054688zm0 0"/><path d="m9.636719 475.429688c-5.046875 0-9.140625-4.097657-9.136719-9.144532 0-1.417968.332031-2.816406.964844-4.082031l9.140625-18.285156c2.257812-4.519531 7.75-6.351563 12.269531-4.097657 4.519531 2.257813 6.351562 7.75 4.097656 12.269532l-9.144531 18.285156c-1.550781 3.101562-4.722656 5.0625-8.191406 5.054688zm0 0"/><path d="m457.609375 365.722656c-5.050781 0-9.140625-4.097656-9.140625-9.144531.003906-1.417969.332031-2.816406.964844-4.082031l9.144531-18.285156c2.253906-4.519532 7.75-6.351563 12.269531-4.097657 4.515625 2.257813 6.351563 7.75 4.09375 12.269531l-9.140625 18.285157c-1.550781 3.101562-4.726562 5.0625-8.191406 5.054687zm0 0"/><path d="m384.46875 365.722656c-5.046875 0-9.140625-4.097656-9.136719-9.144531 0-1.417969.332031-2.816406.964844-4.082031l9.140625-18.285156c2.257812-4.519532 7.75-6.351563 12.269531-4.097657 4.519531 2.257813 6.351563 7.75 4.097657 12.269531l-9.144532 18.285157c-1.550781 3.101562-4.722656 5.0625-8.191406 5.054687zm0 0"/><path d="m430.179688 420.578125c-5.046876-.003906-9.140626-4.097656-9.136719-9.148437 0-1.417969.332031-2.8125.964843-4.082032l9.140626-18.285156c2.257812-4.515625 7.75-6.351562 12.269531-4.09375s6.355469 7.75 4.097656 12.269531l-9.144531 18.285157c-1.550782 3.101562-4.722656 5.058593-8.191406 5.054687zm0 0"/><path d="m357.042969 420.578125c-5.050781-.003906-9.140625-4.097656-9.136719-9.148437 0-1.417969.328125-2.8125.964844-4.082032l9.140625-18.285156c2.257812-4.515625 7.75-6.351562 12.269531-4.09375s6.351562 7.75 4.09375 12.269531l-9.140625 18.285157c-1.550781 3.101562-4.722656 5.058593-8.191406 5.054687zm0 0"/><path d="m402.753906 475.429688c-5.046875 0-9.140625-4.097657-9.136718-9.144532 0-1.417968.332031-2.816406.964843-4.082031l9.140625-18.285156c2.257813-4.519531 7.75-6.351563 12.269532-4.097657 4.519531 2.257813 6.351562 7.75 4.097656 12.269532l-9.144532 18.285156c-1.550781 3.101562-4.722656 5.0625-8.191406 5.054688zm0 0"/><path d="m329.617188 475.429688c-5.050782 0-9.140626-4.097657-9.136719-9.144532 0-1.417968.328125-2.816406.960937-4.082031l9.144532-18.285156c2.257812-4.519531 7.75-6.351563 12.269531-4.097657 4.519531 2.257813 6.351562 7.75 4.09375 12.269532l-9.140625 18.285156c-1.550782 3.101562-4.722656 5.0625-8.191406 5.054688zm0 0"/></g><path d="m155.914062 109.742188h-18.285156c-.023437-37.535157 25.371094-70.320313 61.71875-79.683594l4.570313 17.699218c-28.265625 7.292969-48.011719 32.789063-48.003907 61.984376zm0 0" fill="#a5d2d6"/><path d="m411.894531 237.734375h36.570313v18.28125h-36.570313zm0 0" fill="#a5d2d6"/><path d="m375.328125 237.734375h18.285156v18.28125h-18.285156zm0 0" fill="#a5d2d6"/><path d="m128.488281 237.734375h36.566407v18.28125h-36.566407zm0 0" fill="#a5d2d6"/><path d="m91.917969 237.734375h18.285156v18.28125h-18.285156zm0 0" fill="#a5d2d6"/><path d="m320.472656 347.441406h-55.429687l46.289062-100.566406h-82.28125l-36.566406 137.132812h45.710937l-45.710937 127.992188zm0 0" fill="#fbb540"/></svg>