<svg height="512pt" viewBox="-16 0 512 512" width="512pt" xmlns="http://www.w3.org/2000/svg"><path d="m389.328125 128h-5.335937c0-70.691406-57.304688-128-128-128-70.691407 0-128 57.308594-128 128h-5.332032c-50.074218 0-90.667968 40.59375-90.667968 90.667969 0 50.070312 40.59375 90.664062 90.667968 90.664062h266.667969c50.074219 0 90.664063-40.59375 90.664063-90.664062 0-50.074219-40.589844-90.667969-90.664063-90.667969zm0 0" fill="#b3e4e8"/><path d="m181.328125 128h-21.335937c-.027344-43.789062 29.597656-82.042969 72-92.96875l5.335937 20.648438c-32.976563 8.515624-56.011719 38.261718-56 72.320312zm0 0" fill="#a5d2d6"/><g fill="#c0f5f9"><path d="m245.328125 384c-5.890625-.003906-10.664063-4.78125-10.660156-10.671875 0-1.652344.382812-3.285156 1.125-4.761719l10.664062-21.335937c2.632813-5.269531 9.042969-7.410157 14.316407-4.777344 5.273437 2.632813 7.410156 9.042969 4.777343 14.316406l-10.664062 21.332031c-1.808594 3.621094-5.511719 5.90625-9.558594 5.898438zm0 0"/><path d="m330.660156 384c-5.890625-.003906-10.664062-4.78125-10.660156-10.671875 0-1.652344.386719-3.285156 1.125-4.761719l10.667969-21.335937c2.632812-5.269531 9.039062-7.410157 14.3125-4.777344 5.273437 2.632813 7.414062 9.042969 4.78125 14.316406l-10.667969 21.332031c-1.808594 3.621094-5.511719 5.90625-9.558594 5.898438zm0 0"/><path d="m415.996094 384c-5.890625-.003906-10.664063-4.78125-10.664063-10.671875.003907-1.652344.386719-3.285156 1.125-4.761719l10.667969-21.335937c2.632812-5.269531 9.042969-7.410157 14.316406-4.777344 5.269532 2.632813 7.410156 9.042969 4.777344 14.316406l-10.667969 21.332031c-1.808593 3.621094-5.507812 5.90625-9.554687 5.898438zm0 0"/><path d="m159.996094 384c-5.890625-.003906-10.664063-4.78125-10.664063-10.671875.003907-1.652344.386719-3.285156 1.125-4.761719l10.667969-21.335937c2.632812-5.269531 9.042969-7.410157 14.316406-4.777344 5.269532 2.632813 7.410156 9.042969 4.777344 14.316406l-10.667969 21.332031c-1.808593 3.621094-5.507812 5.90625-9.554687 5.898438zm0 0"/><path d="m74.660156 384c-5.890625-.003906-10.664062-4.78125-10.660156-10.671875 0-1.652344.386719-3.285156 1.125-4.761719l10.667969-21.335937c2.632812-5.269531 9.039062-7.410157 14.3125-4.777344 5.273437 2.632813 7.414062 9.042969 4.78125 14.316406l-10.667969 21.332031c-1.808594 3.621094-5.511719 5.90625-9.558594 5.898438zm0 0"/><path d="m213.328125 448c-5.890625-.003906-10.664063-4.78125-10.660156-10.671875 0-1.652344.386719-3.285156 1.125-4.761719l10.664062-21.335937c2.636719-5.269531 9.042969-7.410157 14.316407-4.777344 5.273437 2.632813 7.410156 9.042969 4.777343 14.316406l-10.664062 21.332031c-1.808594 3.621094-5.511719 5.90625-9.558594 5.898438zm0 0"/><path d="m298.660156 448c-5.890625-.003906-10.664062-4.78125-10.660156-10.671875 0-1.652344.386719-3.285156 1.125-4.761719l10.667969-21.335937c2.632812-5.269531 9.039062-7.410157 14.3125-4.777344 5.273437 2.632813 7.414062 9.042969 4.78125 14.316406l-10.667969 21.332031c-1.808594 3.621094-5.511719 5.90625-9.558594 5.898438zm0 0"/><path d="m383.996094 448c-5.890625-.003906-10.664063-4.78125-10.664063-10.671875.003907-1.652344.386719-3.285156 1.125-4.761719l10.667969-21.335937c2.632812-5.269531 9.042969-7.410157 14.316406-4.777344 5.269532 2.632813 7.410156 9.042969 4.777344 14.316406l-10.667969 21.332031c-1.808593 3.621094-5.507812 5.90625-9.554687 5.898438zm0 0"/><path d="m127.996094 448c-5.890625-.003906-10.664063-4.78125-10.664063-10.671875.003907-1.652344.386719-3.285156 1.125-4.761719l10.667969-21.335937c2.632812-5.269531 9.042969-7.410157 14.316406-4.777344 5.269532 2.632813 7.410156 9.042969 4.777344 14.316406l-10.667969 21.332031c-1.808593 3.621094-5.507812 5.90625-9.554687 5.898438zm0 0"/><path d="m42.660156 448c-5.890625-.003906-10.664062-4.78125-10.660156-10.671875 0-1.652344.386719-3.285156 1.125-4.761719l10.667969-21.335937c2.632812-5.269531 9.039062-7.410157 14.3125-4.777344 5.273437 2.632813 7.414062 9.042969 4.78125 14.316406l-10.667969 21.332031c-1.808594 3.621094-5.511719 5.90625-9.558594 5.898438zm0 0"/><path d="m181.328125 512c-5.890625-.003906-10.664063-4.78125-10.660156-10.671875 0-1.652344.382812-3.285156 1.125-4.761719l10.664062-21.335937c2.632813-5.269531 9.042969-7.410157 14.316407-4.777344 5.273437 2.632813 7.410156 9.042969 4.777343 14.316406l-10.664062 21.332031c-1.808594 3.621094-5.511719 5.90625-9.558594 5.898438zm0 0"/><path d="m266.660156 512c-5.890625-.003906-10.664062-4.78125-10.660156-10.671875 0-1.652344.386719-3.285156 1.125-4.761719l10.667969-21.335937c2.632812-5.269531 9.039062-7.410157 14.3125-4.777344 5.273437 2.632813 7.414062 9.042969 4.78125 14.316406l-10.667969 21.332031c-1.808594 3.621094-5.511719 5.90625-9.558594 5.898438zm0 0"/><path d="m351.996094 512c-5.890625-.003906-10.664063-4.78125-10.664063-10.671875.003907-1.652344.386719-3.285156 1.125-4.761719l10.667969-21.335937c2.632812-5.269531 9.042969-7.410157 14.316406-4.777344 5.269532 2.632813 7.410156 9.042969 4.777344 14.316406l-10.667969 21.332031c-1.808593 3.621094-5.507812 5.90625-9.554687 5.898438zm0 0"/><path d="m95.996094 512c-5.890625-.003906-10.664063-4.78125-10.664063-10.671875.003907-1.652344.386719-3.285156 1.125-4.761719l10.667969-21.335937c2.632812-5.269531 9.042969-7.410157 14.316406-4.777344 5.269532 2.632813 7.410156 9.042969 4.777344 14.316406l-10.667969 21.332031c-1.808593 3.621094-5.507812 5.90625-9.554687 5.898438zm0 0"/><path d="m10.660156 512c-5.890625-.003906-10.66406225-4.78125-10.660156-10.671875 0-1.652344.386719-3.285156 1.125-4.761719l10.667969-21.335937c2.632812-5.269531 9.039062-7.410157 14.3125-4.777344 5.273437 2.632813 7.414062 9.042969 4.78125 14.316406l-10.667969 21.332031c-1.808594 3.621094-5.511719 5.90625-9.558594 5.898438zm0 0"/></g><path d="m373.328125 256h42.664063v21.332031h-42.664063zm0 0" fill="#a5d2d6"/><path d="m330.660156 256h21.335938v21.332031h-21.335938zm0 0" fill="#a5d2d6"/></svg>