<svg height="511pt" viewBox="1 1 511.99998 511" width="511pt" xmlns="http://www.w3.org/2000/svg"><path d="m256 .5c-4.710938 0-8.535156 3.820312-8.535156 8.53125v204.800781c0 4.714844 3.824218 8.535157 8.535156 8.535157s8.535156-3.820313 8.535156-8.535157v-204.800781c0-4.710938-3.824218-8.53125-8.535156-8.53125zm0 0" fill="#b8eaee"/><path d="m87.039062 75.484375c-3.191406-3.46875-8.589843-3.691406-12.054687-.5-3.46875 3.191406-3.691406 8.589844-.5 12.054687.15625.175782.324219.339844.5.5l148.84375 148.863282c3.335937 3.335937 8.742187 3.335937 12.078125 0 3.332031-3.332032 3.332031-8.738282 0-12.074219zm0 0" fill="#b8eaee"/><path d="m230.398438 256.5c0-4.710938-3.820313-8.535156-8.53125-8.535156h-213.332032c-4.714844 0-8.535156 3.824218-8.535156 8.535156s3.820312 8.53125 8.535156 8.53125h213.332032c4.710937 0 8.53125-3.820312 8.53125-8.53125zm0 0" fill="#b8eaee"/><path d="m222.761719 277.664062-147.777344 147.796876c-3.46875 3.191406-3.691406 8.589843-.5 12.054687 3.191406 3.46875 8.589844 3.691406 12.054687.5.175782-.15625.339844-.324219.5-.5l147.796876-147.734375c3.335937-3.335938 3.335937-8.742188 0-12.074219-3.332032-3.335937-8.738282-3.335937-12.074219 0zm0 0" fill="#b8eaee"/><path d="m256 290.632812c-4.710938 0-8.535156 3.820313-8.535156 8.535157v204.796875c0 4.714844 3.824218 8.535156 8.535156 8.535156s8.535156-3.820312 8.535156-8.535156v-204.796875c0-4.714844-3.824218-8.535157-8.535156-8.535157zm0 0" fill="#b8eaee"/><path d="m288.171875 276.597656c-3.335937-3.335937-8.742187-3.335937-12.074219 0-3.335937 3.332032-3.335937 8.738282 0 12.074219l148.863282 148.847656c3.464843 3.191407 8.863281 2.964844 12.054687-.5 3.007813-3.265625 3.007813-8.292969 0-11.558593zm0 0" fill="#b8eaee"/><path d="m503.464844 247.964844h-204.796875c-4.714844 0-8.535157 3.824218-8.535157 8.535156s3.820313 8.53125 8.535157 8.53125h204.796875c4.714844 0 8.535156-3.820312 8.535156-8.53125s-3.820312-8.535156-8.535156-8.535156zm0 0" fill="#b8eaee"/><path d="m280.535156 240.5c2.261719 0 4.429688-.898438 6.03125-2.5l150.449219-150.460938c3.46875-3.191406 3.691406-8.589843.5-12.054687-3.191406-3.46875-8.589844-3.691406-12.054687-.5-.175782.160156-.339844.324219-.5.5l-150.460938 150.449219c-3.332031 3.332031-3.332031 8.734375.003906 12.066406 1.597656 1.601562 3.765625 2.5 6.03125 2.5zm0 0" fill="#b8eaee"/><path d="m256 196.765625-51.730469 29.867187v59.734376l51.730469 29.867187 51.730469-29.867187v-59.734376zm21.863281 72.421875-21.863281 12.648438-21.894531-12.648438v-25.292969l21.894531-12.644531 21.90625 12.644531zm0 0" fill="#aedee2"/><g fill="#c0f5f9"><path d="m256 145.566406c-1.6875 0-3.332031-.496094-4.734375-1.433594l-42.667969-28.441406c-3.921875-2.613281-4.984375-7.914062-2.367187-11.839844 2.613281-3.921874 7.914062-4.984374 11.839843-2.367187l37.929688 25.308594 37.929688-25.292969c3.925781-2.613281 9.226562-1.554688 11.839843 2.367188 2.617188 3.925781 1.558594 9.226562-2.367187 11.839843l-42.664063 28.441407c-1.40625.929687-3.054687 1.421874-4.738281 1.417968zm0 0"/><path d="m256 103.964844c-1.597656 0-3.167969-.449219-4.523438-1.296875l-42.667968-26.664063c-4.003906-2.5-5.226563-7.769531-2.730469-11.777344 2.5-4.003906 7.773437-5.226562 11.777344-2.730468l38.144531 23.875 36.4375-22.773438c4.003906-2.5 9.277344-1.277344 11.777344 2.730469 2.496094 4.003906 1.273437 9.277344-2.734375 11.777344l-40.957031 25.597656c-1.359376.835937-2.925782 1.273437-4.523438 1.261719zm0 0"/><path d="m256 60.234375c-1.597656 0-3.167969-.449219-4.523438-1.296875l-27.304687-17.066406c-4.007813-2.5-5.230469-7.773438-2.730469-11.777344 2.496094-4.007812 7.769532-5.230469 11.773438-2.730469l22.785156 14.277344 22.785156-14.242187c4.003906-2.5 9.277344-1.277344 11.773438 2.730468 2.5 4.003906 1.277344 9.277344-2.730469 11.773438l-27.304687 17.066406c-1.359376.835938-2.925782 1.273438-4.523438 1.265625zm0 0"/><path d="m121.234375 190.613281c-4.714844.03125-8.558594-3.765625-8.585937-8.480469-.027344-4.09375 2.859374-7.628906 6.878906-8.421874l44.707031-8.945313 8.992187-44.695313c.988282-4.609374 5.527344-7.542968 10.136719-6.550781 4.511719.96875 7.4375 5.355469 6.597657 9.894531l-10.070313 50.3125c-.675781 3.375-3.3125 6.015626-6.691406 6.691407l-50.320313 10.027343c-.542968.105469-1.09375.164063-1.644531.167969zm0 0"/><path d="m93.074219 162.453125c-4.714844.097656-8.609375-3.648437-8.703125-8.359375-.085938-4.109375 2.773437-7.691406 6.800781-8.527344l43.816406-10.109375 9.660157-41.867187c1.058593-4.589844 5.640624-7.457032 10.230468-6.398438 4.59375 1.058594 7.460938 5.636719 6.402344 10.230469l-10.855469 47.070313c-.734375 3.183593-3.21875 5.667968-6.398437 6.398437l-49.027344 11.316406c-.628906.152344-1.277344.234375-1.925781.246094zm0 0"/><path d="m79.804688 127.460938c-4.714844.007812-8.542969-3.808594-8.550782-8.519532-.007812-3.988281 2.75-7.449218 6.636719-8.335937l26.214844-6 6.042969-26.179688c1.0625-4.59375 5.648437-7.457031 10.246093-6.394531 4.59375 1.0625 7.457031 5.648438 6.394531 10.242188l-7.324218 31.328124c-.730469 3.179688-3.214844 5.667969-6.398438 6.398438l-31.375 7.246094c-.621094.140625-1.253906.210937-1.886718.214844zm0 0"/><path d="m108.082031 307.699219c-4.710937-.003907-8.527343-3.828125-8.523437-8.539063 0-1.683594.5-3.328125 1.433594-4.730468l25.300781-37.929688-25.285157-37.929688c-2.613281-3.921874-1.554687-9.222656 2.363282-11.835937 3.921875-2.617187 9.222656-1.558594 11.835937 2.363281l28.441407 42.667969c1.914062 2.867187 1.914062 6.601563 0 9.46875l-28.441407 42.667969c-1.585937 2.378906-4.261719 3.804687-7.125 3.796875zm0 0"/><path d="m68.265625 307.699219c-4.710937-.003907-8.527344-3.828125-8.523437-8.539063 0-1.597656.449218-3.164062 1.296874-4.515625l23.824219-38.144531-22.765625-36.4375c-2.5-4.003906-1.277344-9.277344 2.730469-11.777344 4.003906-2.496094 9.277344-1.273437 11.777344 2.730469l25.597656 40.960937c1.730469 2.769532 1.730469 6.277344 0 9.046876l-26.667969 42.667968c-1.5625 2.503906-4.3125 4.019532-7.269531 4.007813zm0 0"/><path d="m34.132812 292.339844c-4.710937-.003906-8.527343-3.828125-8.523437-8.542969 0-1.59375.449219-3.160156 1.296875-4.511719l14.222656-22.785156-14.230468-22.785156c-2.5-4.003906-1.277344-9.277344 2.730468-11.773438 4.003906-2.5 9.277344-1.277344 11.773438 2.730469l17.070312 27.304687c1.726563 2.769532 1.726563 6.277344 0 9.046876l-17.070312 27.304687c-1.566406 2.507813-4.316406 4.023437-7.269532 4.011719zm0 0"/><path d="m181.570312 399.792969c-4.050781-.003907-7.542968-2.859375-8.351562-6.828125l-8.945312-44.730469-44.703126-8.960937c-4.609374-.992188-7.542968-5.527344-6.550781-10.136719.96875-4.511719 5.355469-7.4375 9.894531-6.597657l50.3125 10.070313c3.375.675781 6.015626 3.3125 6.691407 6.691406l10.035156 50.320313c.921875 4.617187-2.074219 9.109375-6.691406 10.035156-.558594.101562-1.121094.148438-1.691407.136719zm0 0"/><path d="m153.421875 427.953125c-3.972656-.003906-7.417969-2.746094-8.3125-6.613281l-10.121094-43.828125-41.863281-9.667969c-4.59375-1.058594-7.457031-5.640625-6.402344-10.230469 1.058594-4.59375 5.640625-7.460937 10.234375-6.402343l47.070313 10.863281c3.179687.734375 5.664062 3.21875 6.398437 6.398437l11.316407 49.027344c1.0625 4.589844-1.800782 9.171875-6.390626 10.234375-.003906.003906-.007812.003906-.011718.003906-.628906.140625-1.273438.214844-1.917969.214844zm0 0"/><path d="m118.417969 441.222656c-3.96875-.003906-7.414063-2.738281-8.3125-6.605468l-6-26.179688-26.214844-6.015625c-4.59375-1.058594-7.460937-5.644531-6.402344-10.238281 1.058594-4.59375 5.640625-7.460938 10.234375-6.402344l31.378906 7.25c3.179688.734375 5.664063 3.21875 6.398438 6.402344l7.246094 31.367187c1.0625 4.59375-1.800782 9.175781-6.390625 10.238281-.003907 0-.007813 0-.011719.003907-.632812.128906-1.277344.1875-1.925781.179687zm0 0"/><path d="m298.667969 412.941406c-1.683594 0-3.328125-.496094-4.730469-1.425781l-37.9375-25.308594-37.929688 25.292969c-3.925781 2.613281-9.226562 1.554688-11.839843-2.367188-2.617188-3.925781-1.558594-9.226562 2.367187-11.839843l42.664063-28.441407c2.871093-1.914062 6.605469-1.914062 9.472656 0l42.667969 28.441407c3.929687 2.597656 5.007812 7.894531 2.410156 11.824219-1.585938 2.394531-4.273438 3.832031-7.144531 3.824218zm0 0"/><path d="m298.667969 452.765625c-1.597657 0-3.160157-.449219-4.515625-1.296875l-38.152344-23.839844-36.4375 22.773438c-4.003906 2.5-9.277344 1.277344-11.777344-2.730469-2.496094-4.003906-1.273437-9.277344 2.734375-11.777344l40.957031-25.597656c2.769532-1.730469 6.277344-1.730469 9.046876 0l42.667968 26.667969c4.015625 2.464844 5.269532 7.71875 2.800782 11.734375-1.5625 2.542969-4.339844 4.085937-7.324219 4.066406zm0 0"/><path d="m283.308594 486.898438c-1.597656 0-3.164063-.449219-4.515625-1.296876l-22.792969-14.242187-22.785156 14.242187c-4.003906 2.5-9.277344 1.277344-11.773438-2.730468-2.5-4.003906-1.277344-9.277344 2.730469-11.773438l27.304687-17.070312c2.769532-1.726563 6.277344-1.726563 9.046876 0l27.304687 17.070312c4.015625 2.464844 5.273437 7.71875 2.804687 11.734375-1.5625 2.546875-4.339843 4.085938-7.324218 4.066407zm0 0"/><path d="m330.429688 399.792969c-.574219 0-1.148438-.054688-1.707032-.171875-4.59375-.933594-7.574218-5.402344-6.675781-10l10.0625-50.347656c.675781-3.375 3.3125-6.015626 6.691406-6.691407l50.320313-10.027343c4.632812-.855469 9.085937 2.207031 9.941406 6.839843.839844 4.539063-2.082031 8.925781-6.597656 9.894531l-44.738282 8.945313-8.953124 44.695313c-.796876 3.980468-4.285157 6.851562-8.34375 6.863281zm0 0"/><path d="m359.039062 425.988281c-.644531 0-1.289062-.070312-1.917968-.210937-4.59375-1.058594-7.460938-5.636719-6.402344-10.230469 0-.003906 0-.007813 0-.011719l10.855469-47.070312c.734375-3.179688 3.21875-5.664063 6.398437-6.398438l49.027344-11.316406c4.605469-1.058594 9.199219 1.820312 10.253906 6.425781 1.058594 4.605469-1.816406 9.199219-6.425781 10.257813l-43.816406 10.113281-9.660157 41.863281c-.90625 3.855469-4.351562 6.582032-8.3125 6.578125zm0 0"/><path d="m393.582031 441.222656c-.648437 0-1.292969-.074218-1.925781-.214844-4.59375-1.058593-7.460938-5.636718-6.402344-10.230468 0-.003906 0-.007813 0-.007813l7.28125-31.371093c.730469-3.179688 3.214844-5.667969 6.398438-6.398438l31.378906-7.246094c4.59375-1.058594 9.175781 1.808594 10.234375 6.40625 1.058594 4.59375-1.808594 9.175782-6.40625 10.234375l-26.171875 6.042969-6.050781 26.179688c-.898438 3.875-4.355469 6.613281-8.335938 6.605468zm0 0"/><path d="m403.917969 307.699219c-2.855469.003906-5.523438-1.421875-7.109375-3.796875l-28.441406-42.667969c-1.914063-2.867187-1.914063-6.601563 0-9.46875l28.441406-42.667969c2.617187-3.921875 7.914062-4.980468 11.835937-2.363281 3.921875 2.613281 4.980469 7.914063 2.363281 11.835937l-25.300781 37.929688 25.285157 37.929688c2.613281 3.921874 1.558593 9.21875-2.363282 11.835937-1.394531.929687-3.035156 1.429687-4.710937 1.433594zm0 0"/><path d="m442.675781 305.992188c-2.945312.003906-5.683593-1.511719-7.246093-4.011719l-25.597657-40.957031c-1.730469-2.769532-1.730469-6.28125 0-9.046876l26.664063-42.667968c2.5-4.003906 7.769531-5.226563 11.777344-2.730469 4.007812 2.5 5.226562 7.773437 2.730468 11.777344l-23.867187 38.144531 22.765625 36.4375c2.5 3.996094 1.285156 9.261719-2.710938 11.757812-1.355468.847657-2.917968 1.296876-4.515625 1.296876zm0 0"/><path d="m477.867188 292.339844c-2.945313.003906-5.683594-1.511719-7.246094-4.011719l-17.066406-27.304687c-1.730469-2.769532-1.730469-6.28125 0-9.046876l17.066406-27.304687c2.5-4.007813 7.769531-5.230469 11.777344-2.730469 4.003906 2.496094 5.226562 7.769532 2.730468 11.773438l-14.257812 22.785156 14.230468 22.785156c2.5 3.996094 1.285157 9.261719-2.710937 11.757813-1.355469.847656-2.925781 1.296875-4.523437 1.296875zm0 0"/><path d="m390.765625 190.613281c-.570313 0-1.144531-.058593-1.707031-.167969l-50.285156-10.054687c-3.375-.675781-6.015626-3.3125-6.691407-6.691406l-10.035156-50.320313c-.855469-4.632812 2.207031-9.085937 6.839844-9.941406 4.539062-.839844 8.925781 2.082031 9.894531 6.597656l8.945312 44.699219 44.703126 8.992187c4.625.914063 7.632812 5.402344 6.71875 10.027344-.796876 4.015625-4.332032 6.902344-8.425782 6.878906zm0 0"/><path d="m416.964844 162c-.648438.003906-1.289063-.070312-1.921875-.210938l-47.070313-10.863281c-3.179687-.734375-5.664062-3.21875-6.398437-6.398437l-11.316407-49.027344c-1.058593-4.601562 1.8125-9.195312 6.417969-10.253906 4.605469-1.0625 9.199219 1.8125 10.257813 6.414062l10.121094 43.828125 41.863281 9.667969c4.589843 1.066406 7.445312 5.65625 6.378906 10.246094-.898437 3.855468-4.332031 6.589844-8.289063 6.601562zm0 0"/><path d="m432.195312 127.460938c-.644531 0-1.289062-.074219-1.917968-.214844l-31.378906-7.28125c-3.179688-.730469-5.667969-3.214844-6.398438-6.398438l-7.246094-31.367187c-1.0625-4.597657 1.800782-9.183594 6.394532-10.246094 4.597656-1.0625 9.183593 1.800781 10.246093 6.394531l6.042969 26.183594 26.171875 6.039062c4.59375 1.046876 7.46875 5.621094 6.421875 10.21875-.886719 3.886719-4.347656 6.644532-8.335938 6.636719zm0 0"/><path d="m283.308594 486.898438c-1.597656 0-3.164063-.449219-4.515625-1.296876l-22.792969-14.242187-22.785156 14.242187c-4.003906 2.5-9.277344 1.277344-11.773438-2.730468-2.5-4.003906-1.277344-9.277344 2.730469-11.773438l27.304687-17.070312c2.769532-1.726563 6.277344-1.726563 9.046876 0l27.304687 17.070312c4.015625 2.464844 5.273437 7.71875 2.804687 11.734375-1.5625 2.546875-4.339843 4.085938-7.324218 4.066407zm0 0"/></g></svg>