<?xml version="1.0" encoding="utf-8"?>
<!-- Generator: Adobe Illustrator 16.0.0, SVG Export Plug-In . SVG Version: 6.00 Build 0)  -->
<!DOCTYPE svg PUBLIC "-//W3C//DTD SVG 1.1//EN" "http://www.w3.org/Graphics/SVG/1.1/DTD/svg11.dtd">
<svg version="1.1" id="Layer_2" xmlns="http://www.w3.org/2000/svg" xmlns:xlink="http://www.w3.org/1999/xlink" x="0px" y="0px"
	 width="500px" height="500px" viewBox="0 0 500 500" enable-background="new 0 0 500 500" xml:space="preserve">
<g id="Layer_3">
</g>
<g>
	<path fill="#8FCDF0" d="M210.458,454.924l-9.601-5.568l9.604-5.563c4.328-2.508,5.811-8.068,3.305-12.396
		c-1.617-2.791-4.628-4.525-7.859-4.525c-1.587,0-3.156,0.422-4.537,1.223l-9.531,5.52V422.6c0-5.002-4.069-9.072-9.07-9.072
		c-5.002,0-9.071,4.07-9.071,9.072v11.002l-9.519-5.52c-1.382-0.803-2.953-1.227-4.543-1.227c-3.227,0-6.236,1.732-7.854,4.521
		c-2.51,4.328-1.031,9.889,3.295,12.398l9.602,5.568l-9.605,5.563c-4.328,2.506-5.81,8.066-3.304,12.395
		c1.616,2.793,4.628,4.527,7.858,4.527c1.587,0,3.156-0.424,4.537-1.223l9.532-5.521V476.1c0,5.002,4.069,9.07,9.071,9.07
		c5.001,0,9.07-4.068,9.07-9.07v-11.004l9.518,5.521c1.382,0.801,2.953,1.225,4.543,1.225c3.229,0,6.237-1.732,7.854-4.521
		c1.216-2.096,1.543-4.539,0.921-6.881S212.554,456.139,210.458,454.924z"/>
	<g>
		<g>
			<path fill="#58A1D4" d="M87.821,458.975c-2.387,0-4.787-0.799-6.77-2.439c-4.523-3.742-5.157-10.443-1.415-14.967l30.333-36.666
				c3.742-4.523,10.442-5.158,14.966-1.414c4.523,3.742,5.157,10.441,1.415,14.965l-30.333,36.666
				C93.916,457.66,90.88,458.975,87.821,458.975z"/>
		</g>
	</g>
	<g>
		<g>
			<path fill="#58A1D4" d="M256.83,458.975c-2.387,0-4.788-0.801-6.771-2.441c-4.523-3.742-5.156-10.441-1.414-14.965l30.338-36.666
				c3.741-4.521,10.442-5.156,14.966-1.414s5.156,10.443,1.413,14.967l-30.338,36.666
				C262.924,457.66,259.889,458.975,256.83,458.975z"/>
		</g>
	</g>
	<g>
		<g>
			<path fill="#FEC10D" d="M298.309,94.289c-5.871,0-10.63-4.759-10.63-10.63V25.46c0-5.87,4.759-10.63,10.63-10.63
				s10.63,4.76,10.63,10.63v58.199C308.938,89.53,304.18,94.289,298.309,94.289z"/>
		</g>
		<path fill="#FFFFFF" d="M298.316,133.534c-46.399,0-84.147,37.746-84.147,84.143c0,46.395,37.748,84.141,84.147,84.141
			c46.396,0,84.142-37.746,84.142-84.141C382.458,171.28,344.712,133.534,298.316,133.534z"/>
		<path fill="#FEC10D" d="M298.316,112.274c-58.122,0-105.407,47.283-105.407,105.402c0,58.117,47.286,105.4,105.407,105.4
			c58.118,0,105.401-47.283,105.401-105.4C403.718,159.558,356.435,112.274,298.316,112.274z M298.316,301.817
			c-46.399,0-84.147-37.746-84.147-84.141c0-46.396,37.748-84.143,84.147-84.143c46.396,0,84.142,37.746,84.142,84.143
			C382.458,264.071,344.712,301.817,298.316,301.817z"/>
		<path fill="#FEC10D" d="M489.453,207.044h-57.137c-5.871,0-10.63,4.76-10.63,10.63c0,5.871,4.759,10.63,10.63,10.63h57.137
			c5.871,0,10.63-4.759,10.63-10.63C500.083,211.804,495.324,207.044,489.453,207.044z"/>
		<g>
			<path fill="#FEC10D" d="M393.064,133.541c-2.721,0-5.44-1.037-7.517-3.113c-4.151-4.15-4.151-10.881,0-15.032l31.207-31.209
				c4.15-4.151,10.881-4.152,15.033-0.001c4.151,4.151,4.151,10.882,0,15.033l-31.207,31.209
				C398.506,132.503,395.785,133.541,393.064,133.541z"/>
		</g>
		<g>
			<path fill="#FEC10D" d="M424.684,354.685c-2.721,0-5.44-1.039-7.517-3.113l-32.023-32.025c-4.151-4.152-4.151-10.883,0-15.033
				c4.152-4.152,10.881-4.15,15.033,0l32.023,32.025c4.151,4.15,4.151,10.881,0,15.033
				C430.124,353.646,427.403,354.685,424.684,354.685z"/>
		</g>
		<g>
			<path fill="#FEC10D" d="M203.548,133.541c-2.721,0-5.441-1.037-7.517-3.113l-31.554-31.556c-4.151-4.151-4.151-10.882,0-15.033
				c4.151-4.15,10.882-4.151,15.033,0.001l31.554,31.556c4.151,4.151,4.151,10.882,0,15.032
				C208.989,132.503,206.268,133.541,203.548,133.541z"/>
		</g>
	</g>
	<path fill="#FFFFFF" d="M311.997,260.259c-5.784-0.99-9.673-6.479-8.687-12.264c0.48-2.821,0.714-5.339,0.714-7.695
		c0-24.343-19.807-44.147-44.151-44.147c-5.059,0-10.15,0.92-15.135,2.734c-4.667,1.7-9.885-0.061-12.573-4.234
		c-16.582-25.754-44.704-41.13-75.227-41.13c-49.363,0-89.522,40.156-89.522,89.514c0,2.2,0.167,4.48,0.344,6.896
		c0.377,5.151-2.999,9.878-8.007,11.136c-22.713,5.707-38.576,26.02-38.576,49.393c0,28.139,22.877,51.031,50.996,51.031h231.155
		c28.141,0,51.034-22.893,51.034-51.031C354.362,285.569,336.545,264.456,311.997,260.259z"/>
	<path fill="#808083" d="M325.269,241.646c0.011-0.45,0.016-0.899,0.016-1.346c0-36.065-29.344-65.407-65.411-65.407
		c-4.828,0-9.655,0.554-14.422,1.65c-20.889-27.869-53.415-44.28-88.512-44.28c-61.085,0-110.782,49.693-110.782,110.773
		c0,0.025,0,0.052,0,0.077C18.542,253.735-0.083,280.298-0.083,310.46c0,39.861,32.414,72.291,72.256,72.291h231.155
		c39.863,0,72.294-32.43,72.294-72.291C375.622,278.546,354.961,251.015,325.269,241.646z M303.328,361.491H72.173
		c-28.119,0-50.996-22.893-50.996-51.031c0-23.373,15.863-43.686,38.576-49.393c5.009-1.258,8.385-5.984,8.007-11.136
		c-0.177-2.415-0.344-4.695-0.344-6.896c0-49.357,40.16-89.514,89.522-89.514c30.522,0,58.645,15.376,75.227,41.13
		c2.688,4.174,7.906,5.935,12.573,4.234c4.984-1.814,10.076-2.734,15.135-2.734c24.345,0,44.151,19.805,44.151,44.147
		c0,2.356-0.233,4.874-0.714,7.695c-0.986,5.785,2.902,11.273,8.687,12.264c24.548,4.197,42.365,25.311,42.365,50.201
		C354.362,338.599,331.469,361.491,303.328,361.491z"/>
</g>
</svg>
